<svg 
 xmlns="http://www.w3.org/2000/svg"
 xmlns:xlink="http://www.w3.org/1999/xlink"
 width="105px" height="60px">
<path fill-rule="evenodd"  fill="rgb(255, 255, 255)"
 d="M98.175,50.628 L89.974,50.628 L89.974,59.443 L82.594,59.443 L82.594,30.741 L98.175,30.741 C102.275,30.741 104.736,33.611 104.736,36.891 L104.736,44.477 C104.736,47.962 102.111,50.628 98.175,50.628 ZM97.355,37.507 C97.355,36.686 96.740,36.071 95.920,36.071 L89.974,36.071 L89.974,45.297 L95.920,45.297 C96.740,45.297 97.355,44.682 97.355,43.862 L97.355,37.507 ZM93.532,14.823 L88.912,14.823 L88.912,23.734 L85.281,23.734 L85.281,0.632 L96.172,0.632 C99.835,0.632 101.783,2.579 101.783,5.582 L101.783,9.873 C101.783,11.853 100.628,13.008 99.472,13.668 C98.779,14.064 98.020,14.328 97.162,14.493 L102.608,22.084 L102.608,23.734 L99.142,23.734 L93.532,14.823 ZM98.152,9.873 L98.152,5.582 C98.152,4.262 97.162,3.272 95.842,3.272 L88.912,3.272 L88.912,12.183 L95.842,12.183 C97.162,12.183 98.152,11.193 98.152,9.873 ZM65.554,0.632 L80.900,0.632 L80.900,2.117 L79.910,3.272 L69.184,3.272 L69.184,10.863 L77.930,10.863 L77.930,13.503 L69.184,13.503 L69.184,21.094 L80.900,21.094 L80.900,23.734 L65.554,23.734 L65.554,0.632 ZM77.409,36.481 L77.409,53.703 C77.409,57.188 74.785,59.853 70.849,59.853 L61.008,59.853 C57.072,59.853 54.448,57.188 54.448,53.703 L54.448,36.481 C54.448,32.996 57.072,30.331 61.008,30.331 L70.849,30.331 C74.949,30.331 77.409,33.201 77.409,36.481 ZM70.029,37.096 C70.029,36.276 69.414,35.661 68.594,35.661 L63.263,35.661 C62.443,35.661 61.828,36.276 61.828,37.096 L61.828,53.088 C61.828,53.908 62.443,54.523 63.263,54.523 L68.594,54.523 C69.414,54.523 70.029,53.908 70.029,53.088 L70.029,37.096 ZM55.150,16.143 L47.889,16.143 L47.889,23.734 L44.259,23.734 L44.259,0.632 L55.150,0.632 C58.813,0.632 60.761,2.579 60.761,5.582 L60.761,11.193 C60.761,14.196 58.813,16.143 55.150,16.143 ZM57.130,5.582 C57.130,4.262 56.140,3.272 54.820,3.272 L47.889,3.272 L47.889,13.503 L54.820,13.503 C56.140,13.503 57.130,12.513 57.130,11.193 L57.130,5.582 ZM49.263,30.741 L49.263,59.443 L41.883,59.443 L41.883,47.757 L34.092,47.757 L34.092,59.443 L26.712,59.443 L26.712,30.741 L34.092,30.741 L34.092,42.427 L41.883,42.427 L41.883,30.741 L49.263,30.741 ZM33.321,24.064 L27.050,24.064 C23.387,24.064 21.440,22.117 21.440,19.114 L21.440,0.632 L25.070,0.632 L25.070,19.114 C25.070,20.434 26.060,21.424 27.380,21.424 L32.991,21.424 C34.311,21.424 35.301,20.434 35.301,19.114 L35.301,0.632 L38.932,0.632 L38.932,19.114 C38.932,22.117 36.984,24.064 33.321,24.064 ZM9.251,36.071 C8.431,36.071 7.815,36.686 7.815,37.507 L7.815,39.557 C7.815,40.582 8.349,41.197 9.456,41.402 L17.041,43.042 C19.911,43.698 22.167,45.871 22.167,49.192 L22.167,53.293 C22.167,56.778 19.542,59.443 15.606,59.443 L0.435,59.443 L0.435,54.113 L13.351,54.113 C14.171,54.113 14.786,53.498 14.786,52.678 L14.786,50.012 C14.786,48.987 14.253,48.372 13.146,48.167 L5.560,46.527 C2.690,45.871 0.435,43.698 0.435,40.377 L0.435,36.891 C0.435,33.406 3.059,30.741 6.995,30.741 L20.937,30.741 L20.937,34.226 L19.297,36.071 L9.251,36.071 ZM11.211,23.734 L0.650,23.734 L0.650,21.094 L10.881,21.094 C12.201,21.094 13.191,20.104 13.191,18.784 L13.191,16.473 C13.191,15.318 12.366,14.427 11.211,14.163 L4.940,12.678 C2.300,12.051 0.650,10.368 0.650,7.563 L0.650,5.582 C0.650,2.579 2.597,0.632 6.260,0.632 L15.831,0.632 L15.831,2.117 L14.841,3.272 L6.591,3.272 C5.270,3.272 4.280,4.262 4.280,5.582 L4.280,7.563 C4.280,8.718 5.105,9.609 6.260,9.873 L12.531,11.358 C15.171,11.985 16.821,13.668 16.821,16.473 L16.821,18.784 C16.821,21.787 14.874,23.734 11.211,23.734 Z"/>
</svg>